<?xml version="1.0" encoding="utf-8"?>
<!-- Generator: Adobe Illustrator 28.1.0, SVG Export Plug-In . SVG Version: 6.00 Build 0)  -->
<svg version="1.1" xmlns="http://www.w3.org/2000/svg" xmlns:xlink="http://www.w3.org/1999/xlink" x="0px" y="0px"
	 viewBox="0 0 1920 1080" style="enable-background:new 0 0 1920 1080;" xml:space="preserve">
<style type="text/css">
	.st0{opacity:0.66;}
	.st1{fill:#FF0AF9;}
</style>
<g id="Layer_1">
	<g class="st0">
		<circle class="st1" cx="38.9" cy="38.9" r="7.1"/>
	</g>
	<g class="st0">
		<circle class="st1" cx="53.5" cy="38.9" r="7.1"/>
	</g>
	<g class="st0">
		<circle class="st1" cx="68" cy="38.9" r="7.1"/>
	</g>
	<g class="st0">
		<circle class="st1" cx="64.1" cy="24.4" r="7.1"/>
	</g>
	<g class="st0">
		<circle class="st1" cx="53.5" cy="13.8" r="7.1"/>
	</g>
	<g class="st0">
		<circle class="st1" cx="38.9" cy="9.9" r="7.1"/>
	</g>
	<g class="st0">
		<circle class="st1" cx="24.4" cy="13.8" r="7.1"/>
	</g>
	<g class="st0">
		<circle class="st1" cx="13.8" cy="24.4" r="7.1"/>
	</g>
	<g class="st0">
		<circle class="st1" cx="9.9" cy="38.9" r="7.1"/>
	</g>
	<g class="st0">
		<circle class="st1" cx="13.8" cy="53.5" r="7.1"/>
	</g>
	<g class="st0">
		<circle class="st1" cx="24.4" cy="64.1" r="7.1"/>
	</g>
	<g class="st0">
		<circle class="st1" cx="38.9" cy="68" r="7.1"/>
	</g>
	<g class="st0">
		<circle class="st1" cx="53.5" cy="64.1" r="7.1"/>
	</g>
	<g class="st0">
		<circle class="st1" cx="64.1" cy="53.5" r="7.1"/>
	</g>
	<g class="st0">
		<circle class="st1" cx="46.2" cy="26.4" r="7.1"/>
	</g>
	<g class="st0">
		<circle class="st1" cx="31.7" cy="26.4" r="7.1"/>
	</g>
	<g class="st0">
		<circle class="st1" cx="24.4" cy="38.9" r="7.1"/>
	</g>
	<g class="st0">
		<circle class="st1" cx="31.7" cy="51.5" r="7.1"/>
	</g>
	<g class="st0">
		<circle class="st1" cx="46.2" cy="51.5" r="7.1"/>
	</g>
</g>
<g id="Layer_2">
	<g class="st0">
		<circle class="st1" cx="38.9" cy="38.9" r="7.1"/>
	</g>
	<g class="st0">
		<circle class="st1" cx="53" cy="35.2" r="7.1"/>
	</g>
	<g class="st0">
		<circle class="st1" cx="67" cy="31.4" r="7.1"/>
	</g>
	<g class="st0">
		<circle class="st1" cx="59.5" cy="18.4" r="7.1"/>
	</g>
	<g class="st0">
		<circle class="st1" cx="46.5" cy="10.9" r="7.1"/>
	</g>
	<g class="st0">
		<circle class="st1" cx="31.4" cy="10.9" r="7.1"/>
	</g>
	<g class="st0">
		<circle class="st1" cx="18.4" cy="18.4" r="7.1"/>
	</g>
	<g class="st0">
		<circle class="st1" cx="10.9" cy="31.4" r="7.1"/>
	</g>
	<g class="st0">
		<circle class="st1" cx="10.9" cy="46.5" r="7.1"/>
	</g>
	<g class="st0">
		<circle class="st1" cx="18.4" cy="59.5" r="7.1"/>
	</g>
	<g class="st0">
		<circle class="st1" cx="31.4" cy="67" r="7.1"/>
	</g>
	<g class="st0">
		<circle class="st1" cx="46.5" cy="67" r="7.1"/>
	</g>
	<g class="st0">
		<circle class="st1" cx="59.5" cy="59.5" r="7.1"/>
	</g>
	<g class="st0">
		<circle class="st1" cx="67" cy="46.5" r="7.1"/>
	</g>
	<g class="st0">
		<circle class="st1" cx="42.7" cy="24.9" r="7.1"/>
	</g>
	<g class="st0">
		<circle class="st1" cx="28.7" cy="28.7" r="7.1"/>
	</g>
	<g class="st0">
		<circle class="st1" cx="24.9" cy="42.7" r="7.1"/>
	</g>
	<g class="st0">
		<circle class="st1" cx="35.2" cy="53" r="7.1"/>
	</g>
	<g class="st0">
		<circle class="st1" cx="49.2" cy="49.2" r="7.1"/>
	</g>
</g>
<g id="Layer_3">
	<g class="st0">
		<circle class="st1" cx="68" cy="38.9" r="7.1"/>
	</g>
	<g class="st0">
		<circle class="st1" cx="64.1" cy="24.4" r="7.1"/>
	</g>
	<g class="st0">
		<circle class="st1" cx="53.5" cy="13.8" r="7.1"/>
	</g>
	<g class="st0">
		<circle class="st1" cx="38.9" cy="9.9" r="7.1"/>
	</g>
	<g class="st0">
		<circle class="st1" cx="24.4" cy="13.8" r="7.1"/>
	</g>
	<g class="st0">
		<circle class="st1" cx="13.8" cy="24.4" r="7.1"/>
	</g>
	<g class="st0">
		<circle class="st1" cx="9.9" cy="38.9" r="7.1"/>
	</g>
	<g class="st0">
		<circle class="st1" cx="13.8" cy="53.5" r="7.1"/>
	</g>
	<g class="st0">
		<circle class="st1" cx="24.4" cy="64.1" r="7.1"/>
	</g>
	<g class="st0">
		<circle class="st1" cx="38.9" cy="68" r="7.1"/>
	</g>
	<g class="st0">
		<circle class="st1" cx="53.5" cy="64.1" r="7.1"/>
	</g>
	<g class="st0">
		<circle class="st1" cx="64.1" cy="53.5" r="7.1"/>
	</g>
</g>
<g id="Layer_4">
	<g class="st0">
		<circle class="st1" cx="67" cy="31.4" r="7.1"/>
	</g>
	<g class="st0">
		<circle class="st1" cx="59.5" cy="18.4" r="7.1"/>
	</g>
	<g class="st0">
		<circle class="st1" cx="46.5" cy="10.9" r="7.1"/>
	</g>
	<g class="st0">
		<circle class="st1" cx="31.4" cy="10.9" r="7.1"/>
	</g>
	<g class="st0">
		<circle class="st1" cx="18.4" cy="18.4" r="7.1"/>
	</g>
	<g class="st0">
		<circle class="st1" cx="10.9" cy="31.4" r="7.1"/>
	</g>
	<g class="st0">
		<circle class="st1" cx="10.9" cy="46.5" r="7.1"/>
	</g>
	<g class="st0">
		<circle class="st1" cx="18.4" cy="59.5" r="7.1"/>
	</g>
	<g class="st0">
		<circle class="st1" cx="31.4" cy="67" r="7.1"/>
	</g>
	<g class="st0">
		<circle class="st1" cx="46.5" cy="67" r="7.1"/>
	</g>
	<g class="st0">
		<circle class="st1" cx="59.5" cy="59.5" r="7.1"/>
	</g>
	<g class="st0">
		<circle class="st1" cx="67" cy="46.5" r="7.1"/>
	</g>
</g>
<g id="Layer_5">
	<g class="st0">
		<circle class="st1" cx="68" cy="38.9" r="7.1"/>
	</g>
	<g class="st0">
		<circle class="st1" cx="64.1" cy="24.4" r="7.1"/>
	</g>
	<g class="st0">
		<circle class="st1" cx="53.5" cy="13.8" r="7.1"/>
	</g>
	<g class="st0">
		<circle class="st1" cx="38.9" cy="9.9" r="7.1"/>
	</g>
	<g class="st0">
		<circle class="st1" cx="24.4" cy="13.8" r="7.1"/>
	</g>
	<g class="st0">
		<circle class="st1" cx="13.8" cy="24.4" r="7.1"/>
	</g>
	<g class="st0">
		<circle class="st1" cx="9.9" cy="38.9" r="7.1"/>
	</g>
	<g class="st0">
		<circle class="st1" cx="13.8" cy="53.5" r="7.1"/>
	</g>
	<g class="st0">
		<circle class="st1" cx="24.4" cy="64.1" r="7.1"/>
	</g>
	<g class="st0">
		<circle class="st1" cx="38.9" cy="68" r="7.1"/>
	</g>
	<g class="st0">
		<circle class="st1" cx="53.5" cy="64.1" r="7.1"/>
	</g>
	<g class="st0">
		<circle class="st1" cx="64.1" cy="53.5" r="7.1"/>
	</g>
</g>
<g id="Layer_6">
	<g class="st0">
		<circle class="st1" cx="67" cy="31.4" r="7.1"/>
	</g>
	<g class="st0">
		<circle class="st1" cx="59.5" cy="18.4" r="7.1"/>
	</g>
	<g class="st0">
		<circle class="st1" cx="46.5" cy="10.9" r="7.1"/>
	</g>
	<g class="st0">
		<circle class="st1" cx="31.4" cy="10.9" r="7.1"/>
	</g>
	<g class="st0">
		<circle class="st1" cx="18.4" cy="18.4" r="7.1"/>
	</g>
	<g class="st0">
		<circle class="st1" cx="10.9" cy="31.4" r="7.1"/>
	</g>
	<g class="st0">
		<circle class="st1" cx="10.9" cy="46.5" r="7.1"/>
	</g>
	<g class="st0">
		<circle class="st1" cx="18.4" cy="59.5" r="7.1"/>
	</g>
	<g class="st0">
		<circle class="st1" cx="31.4" cy="67" r="7.1"/>
	</g>
	<g class="st0">
		<circle class="st1" cx="46.5" cy="67" r="7.1"/>
	</g>
	<g class="st0">
		<circle class="st1" cx="59.5" cy="59.5" r="7.1"/>
	</g>
	<g class="st0">
		<circle class="st1" cx="67" cy="46.5" r="7.1"/>
	</g>
</g>
<g id="Layer_7">
	<g class="st0">
		<circle class="st1" cx="68" cy="38.9" r="7.1"/>
	</g>
	<g class="st0">
		<circle class="st1" cx="64.1" cy="24.4" r="7.1"/>
	</g>
	<g class="st0">
		<circle class="st1" cx="53.5" cy="13.8" r="7.1"/>
	</g>
	<g class="st0">
		<circle class="st1" cx="38.9" cy="9.9" r="7.1"/>
	</g>
	<g class="st0">
		<circle class="st1" cx="24.4" cy="13.8" r="7.1"/>
	</g>
	<g class="st0">
		<circle class="st1" cx="13.8" cy="24.4" r="7.1"/>
	</g>
	<g class="st0">
		<circle class="st1" cx="9.9" cy="38.9" r="7.1"/>
	</g>
	<g class="st0">
		<circle class="st1" cx="13.8" cy="53.5" r="7.1"/>
	</g>
	<g class="st0">
		<circle class="st1" cx="24.4" cy="64.1" r="7.1"/>
	</g>
	<g class="st0">
		<circle class="st1" cx="38.9" cy="68" r="7.1"/>
	</g>
	<g class="st0">
		<circle class="st1" cx="53.5" cy="64.1" r="7.1"/>
	</g>
	<g class="st0">
		<circle class="st1" cx="64.1" cy="53.5" r="7.1"/>
	</g>
</g>
<g id="Layer_8">
	<g class="st0">
		<circle class="st1" cx="67" cy="31.4" r="7.1"/>
	</g>
	<g class="st0">
		<circle class="st1" cx="59.5" cy="18.4" r="7.1"/>
	</g>
	<g class="st0">
		<circle class="st1" cx="46.5" cy="10.9" r="7.1"/>
	</g>
	<g class="st0">
		<circle class="st1" cx="31.4" cy="10.9" r="7.1"/>
	</g>
	<g class="st0">
		<circle class="st1" cx="18.4" cy="18.4" r="7.1"/>
	</g>
	<g class="st0">
		<circle class="st1" cx="10.9" cy="31.4" r="7.1"/>
	</g>
	<g class="st0">
		<circle class="st1" cx="10.9" cy="46.5" r="7.1"/>
	</g>
	<g class="st0">
		<circle class="st1" cx="18.4" cy="59.5" r="7.1"/>
	</g>
	<g class="st0">
		<circle class="st1" cx="31.4" cy="67" r="7.1"/>
	</g>
	<g class="st0">
		<circle class="st1" cx="46.5" cy="67" r="7.1"/>
	</g>
	<g class="st0">
		<circle class="st1" cx="59.5" cy="59.5" r="7.1"/>
	</g>
	<g class="st0">
		<circle class="st1" cx="67" cy="46.5" r="7.1"/>
	</g>
</g>
<g id="Layer_9">
	<g class="st0">
		<circle class="st1" cx="68" cy="38.9" r="7.1"/>
	</g>
	<g class="st0">
		<circle class="st1" cx="64.1" cy="24.4" r="7.1"/>
	</g>
	<g class="st0">
		<circle class="st1" cx="53.5" cy="13.8" r="7.1"/>
	</g>
	<g class="st0">
		<circle class="st1" cx="38.9" cy="9.9" r="7.1"/>
	</g>
	<g class="st0">
		<circle class="st1" cx="24.4" cy="13.8" r="7.1"/>
	</g>
	<g class="st0">
		<circle class="st1" cx="13.8" cy="24.4" r="7.1"/>
	</g>
	<g class="st0">
		<circle class="st1" cx="9.9" cy="38.9" r="7.1"/>
	</g>
	<g class="st0">
		<circle class="st1" cx="13.8" cy="53.5" r="7.1"/>
	</g>
	<g class="st0">
		<circle class="st1" cx="24.4" cy="64.1" r="7.1"/>
	</g>
	<g class="st0">
		<circle class="st1" cx="38.9" cy="68" r="7.1"/>
	</g>
	<g class="st0">
		<circle class="st1" cx="53.5" cy="64.1" r="7.1"/>
	</g>
	<g class="st0">
		<circle class="st1" cx="64.1" cy="53.5" r="7.1"/>
	</g>
</g>
<g id="Layer_10">
	<g class="st0">
		<circle class="st1" cx="67" cy="31.4" r="7.1"/>
	</g>
	<g class="st0">
		<circle class="st1" cx="59.5" cy="18.4" r="7.1"/>
	</g>
	<g class="st0">
		<circle class="st1" cx="46.5" cy="10.9" r="7.1"/>
	</g>
	<g class="st0">
		<circle class="st1" cx="31.4" cy="10.9" r="7.1"/>
	</g>
	<g class="st0">
		<circle class="st1" cx="18.4" cy="18.4" r="7.1"/>
	</g>
	<g class="st0">
		<circle class="st1" cx="10.9" cy="31.4" r="7.1"/>
	</g>
	<g class="st0">
		<circle class="st1" cx="10.9" cy="46.5" r="7.1"/>
	</g>
	<g class="st0">
		<circle class="st1" cx="18.4" cy="59.5" r="7.1"/>
	</g>
	<g class="st0">
		<circle class="st1" cx="31.4" cy="67" r="7.1"/>
	</g>
	<g class="st0">
		<circle class="st1" cx="46.5" cy="67" r="7.1"/>
	</g>
	<g class="st0">
		<circle class="st1" cx="59.5" cy="59.5" r="7.1"/>
	</g>
	<g class="st0">
		<circle class="st1" cx="67" cy="46.5" r="7.1"/>
	</g>
</g>
<g id="Layer_11">
	<g class="st0">
		<circle class="st1" cx="68" cy="38.9" r="7.1"/>
	</g>
	<g class="st0">
		<circle class="st1" cx="64.1" cy="24.4" r="7.1"/>
	</g>
	<g class="st0">
		<circle class="st1" cx="53.5" cy="13.8" r="7.1"/>
	</g>
	<g class="st0">
		<circle class="st1" cx="38.9" cy="9.9" r="7.1"/>
	</g>
	<g class="st0">
		<circle class="st1" cx="24.4" cy="13.8" r="7.1"/>
	</g>
	<g class="st0">
		<circle class="st1" cx="13.8" cy="24.4" r="7.1"/>
	</g>
	<g class="st0">
		<circle class="st1" cx="9.9" cy="38.9" r="7.1"/>
	</g>
	<g class="st0">
		<circle class="st1" cx="13.8" cy="53.5" r="7.1"/>
	</g>
	<g class="st0">
		<circle class="st1" cx="24.4" cy="64.1" r="7.1"/>
	</g>
	<g class="st0">
		<circle class="st1" cx="38.9" cy="68" r="7.1"/>
	</g>
	<g class="st0">
		<circle class="st1" cx="53.5" cy="64.1" r="7.1"/>
	</g>
	<g class="st0">
		<circle class="st1" cx="64.1" cy="53.5" r="7.1"/>
	</g>
</g>
<g id="Layer_12">
	<g class="st0">
		<circle class="st1" cx="67" cy="31.4" r="7.1"/>
	</g>
	<g class="st0">
		<circle class="st1" cx="59.5" cy="18.4" r="7.1"/>
	</g>
	<g class="st0">
		<circle class="st1" cx="46.5" cy="10.9" r="7.1"/>
	</g>
	<g class="st0">
		<circle class="st1" cx="31.4" cy="10.9" r="7.1"/>
	</g>
	<g class="st0">
		<circle class="st1" cx="18.4" cy="18.4" r="7.1"/>
	</g>
	<g class="st0">
		<circle class="st1" cx="10.9" cy="31.4" r="7.1"/>
	</g>
	<g class="st0">
		<circle class="st1" cx="10.9" cy="46.5" r="7.1"/>
	</g>
	<g class="st0">
		<circle class="st1" cx="18.4" cy="59.5" r="7.1"/>
	</g>
	<g class="st0">
		<circle class="st1" cx="31.4" cy="67" r="7.1"/>
	</g>
	<g class="st0">
		<circle class="st1" cx="46.5" cy="67" r="7.1"/>
	</g>
	<g class="st0">
		<circle class="st1" cx="59.5" cy="59.5" r="7.1"/>
	</g>
	<g class="st0">
		<circle class="st1" cx="67" cy="46.5" r="7.1"/>
	</g>
</g>
<g id="Layer_13">
	<g class="st0">
		<circle class="st1" cx="68" cy="38.9" r="7.1"/>
	</g>
	<g class="st0">
		<circle class="st1" cx="64.1" cy="24.4" r="7.1"/>
	</g>
	<g class="st0">
		<circle class="st1" cx="53.5" cy="13.8" r="7.1"/>
	</g>
	<g class="st0">
		<circle class="st1" cx="38.9" cy="9.9" r="7.1"/>
	</g>
	<g class="st0">
		<circle class="st1" cx="24.4" cy="13.8" r="7.1"/>
	</g>
	<g class="st0">
		<circle class="st1" cx="13.8" cy="24.4" r="7.1"/>
	</g>
	<g class="st0">
		<circle class="st1" cx="9.9" cy="38.9" r="7.1"/>
	</g>
	<g class="st0">
		<circle class="st1" cx="13.8" cy="53.5" r="7.1"/>
	</g>
	<g class="st0">
		<circle class="st1" cx="24.4" cy="64.1" r="7.1"/>
	</g>
	<g class="st0">
		<circle class="st1" cx="38.9" cy="68" r="7.1"/>
	</g>
	<g class="st0">
		<circle class="st1" cx="53.5" cy="64.1" r="7.1"/>
	</g>
	<g class="st0">
		<circle class="st1" cx="64.1" cy="53.5" r="7.1"/>
	</g>
</g>
</svg>
